solid
facet normal -0.0 20.0 -0.0
  outer loop
    vertex 2.5 0.3 1.7999999999999998
    vertex 2.5 0.3 0.0
    vertex 1.5 0.3 1.7999999999999998
  endloop
endfacet
facet normal -0.0 20.0 -0.0
  outer loop
    vertex 2.5 0.3 0.0
    vertex 1.5 0.3 0.0
    vertex 1.5 0.3 1.7999999999999998
  endloop
endfacet
facet normal -0.0 -20.0 -0.0
  outer loop
    vertex 1.5 1.3 1.7999999999999998
    vertex 1.5 1.3 0.0
    vertex 2.5 1.3 1.7999999999999998
  endloop
endfacet
facet normal -0.0 -20.0 -0.0
  outer loop
    vertex 1.5 1.3 0.0
    vertex 2.5 1.3 0.0
    vertex 2.5 1.3 1.7999999999999998
  endloop
endfacet
facet normal -0.0 -0.0 -36.0
  outer loop
    vertex 2.5 0.3 1.7999999999999998
    vertex 1.5 0.3 1.7999999999999998
    vertex 2.5 1.3 1.7999999999999998
  endloop
endfacet
facet normal -0.0 -0.0 -36.0
  outer loop
    vertex 1.5 0.3 1.7999999999999998
    vertex 1.5 1.3 1.7999999999999998
    vertex 2.5 1.3 1.7999999999999998
  endloop
endfacet
facet normal 20.0 0.0 -0.0
  outer loop
    vertex 1.5 0.3 1.7999999999999998
    vertex 1.5 0.3 0.0
    vertex 1.5 1.3 1.7999999999999998
  endloop
endfacet
facet normal 20.0 -0.0 0.0
  outer loop
    vertex 1.5 0.3 0.0
    vertex 1.5 1.3 0.0
    vertex 1.5 1.3 1.7999999999999998
  endloop
endfacet
facet normal -20.0 0.0 -0.0
  outer loop
    vertex 2.5 1.3 1.7999999999999998
    vertex 2.5 1.3 0.0
    vertex 2.5 0.3 1.7999999999999998
  endloop
endfacet
facet normal -20.0 -0.0 -0.0
  outer loop
    vertex 2.5 1.3 0.0
    vertex 2.5 0.3 0.0
    vertex 2.5 0.3 1.7999999999999998
  endloop
endfacet
facet normal -0.0 -0.0 -1.2
  outer loop
    vertex 0.0 0.0 0.0
    vertex 2.5 0.3 0.0
    vertex 4.0 0.0 0.0
  endloop
endfacet
facet normal -0.0 -0.0 -1.5
  outer loop
    vertex 2.5 1.3 0.0
    vertex 4.0 0.0 0.0
    vertex 2.5 0.3 0.0
  endloop
endfacet
facet normal -0.0 -0.0 -0.3
  outer loop
    vertex 2.5 0.3 0.0
    vertex 0.0 0.0 0.0
    vertex 1.5 0.3 0.0
  endloop
endfacet
facet normal -0.0 -0.0 -1.5
  outer loop
    vertex 1.5 0.3 0.0
    vertex 0.0 0.0 0.0
    vertex 1.5 1.3 0.0
  endloop
endfacet
facet normal -0.0 -0.0 -3.0
  outer loop
    vertex 0.0 0.0 0.0
    vertex 0.0 2.0 0.0
    vertex 1.5 1.3 0.0
  endloop
endfacet
facet normal -0.0 -0.0 -0.7
  outer loop
    vertex 1.5 1.3 0.0
    vertex 0.0 2.0 0.0
    vertex 2.5 1.3 0.0
  endloop
endfacet
facet normal -0.0 -0.0 -2.8
  outer loop
    vertex 4.0 2.0 0.0
    vertex 2.5 1.3 0.0
    vertex 0.0 2.0 0.0
  endloop
endfacet
facet normal -0.0 -0.0 -3.0
  outer loop
    vertex 2.5 1.3 0.0
    vertex 4.0 2.0 0.0
    vertex 4.0 0.0 0.0
  endloop
endfacet
facet normal 0.0 -40.0 0.0
  outer loop
    vertex 0.0 0.0 2.0
    vertex 4.0 0.0 0.0
    vertex 4.0 0.0 2.0
  endloop
endfacet
facet normal 0.0 -40.0 0.0
  outer loop
    vertex 0.0 0.0 2.0
    vertex 0.0 0.0 0.0
    vertex 4.0 0.0 0.0
  endloop
endfacet
facet normal 0.0 40.0 0.0
  outer loop
    vertex 4.0 2.0 2.0
    vertex 0.0 2.0 0.0
    vertex 0.0 2.0 2.0
  endloop
endfacet
facet normal 0.0 40.0 0.0
  outer loop
    vertex 4.0 2.0 2.0
    vertex 4.0 2.0 0.0
    vertex 0.0 2.0 0.0
  endloop
endfacet
facet normal 0.0 0.0 40.0
  outer loop
    vertex 4.0 2.0 2.0
    vertex 0.0 0.0 2.0
    vertex 4.0 0.0 2.0
  endloop
endfacet
facet normal 0.0 0.0 40.0
  outer loop
    vertex 4.0 2.0 2.0
    vertex 0.0 2.0 2.0
    vertex 0.0 0.0 2.0
  endloop
endfacet
facet normal -80.0 -0.0 0.0
  outer loop
    vertex 0.0 2.0 2.0
    vertex 0.0 0.0 0.0
    vertex 0.0 0.0 2.0
  endloop
endfacet
facet normal -80.0 0.0 -0.0
  outer loop
    vertex 0.0 2.0 2.0
    vertex 0.0 2.0 0.0
    vertex 0.0 0.0 0.0
  endloop
endfacet
facet normal 80.0 -0.0 0.0
  outer loop
    vertex 4.0 0.0 2.0
    vertex 4.0 2.0 0.0
    vertex 4.0 2.0 2.0
  endloop
endfacet
facet normal 80.0 0.0 0.0
  outer loop
    vertex 4.0 0.0 2.0
    vertex 4.0 0.0 0.0
    vertex 4.0 2.0 0.0
  endloop
endfacet
endsolid
