solid
facet normal 0.0 -40.0 0.0
  outer loop
    vertex 0.0 0.0 2.0
    vertex 4.0 0.0 0.0
    vertex 4.0 0.0 2.0
  endloop
endfacet
facet normal 0.0 -40.0 0.0
  outer loop
    vertex 0.0 0.0 2.0
    vertex 0.0 0.0 0.0
    vertex 4.0 0.0 0.0
  endloop
endfacet
facet normal 0.0 40.0 0.0
  outer loop
    vertex 4.0 2.0 2.0
    vertex 0.0 2.0 0.0
    vertex 0.0 2.0 2.0
  endloop
endfacet
facet normal 0.0 40.0 0.0
  outer loop
    vertex 4.0 2.0 2.0
    vertex 4.0 2.0 0.0
    vertex 0.0 2.0 0.0
  endloop
endfacet
facet normal 0.0 0.0 -40.0
  outer loop
    vertex 4.0 0.0 0.0
    vertex 0.0 2.0 0.0
    vertex 4.0 2.0 0.0
  endloop
endfacet
facet normal 0.0 0.0 -40.0
  outer loop
    vertex 4.0 0.0 0.0
    vertex 0.0 0.0 0.0
    vertex 0.0 2.0 0.0
  endloop
endfacet
facet normal 0.0 0.0 40.0
  outer loop
    vertex 4.0 2.0 2.0
    vertex 0.0 0.0 2.0
    vertex 4.0 0.0 2.0
  endloop
endfacet
facet normal 0.0 0.0 40.0
  outer loop
    vertex 4.0 2.0 2.0
    vertex 0.0 2.0 2.0
    vertex 0.0 0.0 2.0
  endloop
endfacet
facet normal -80.0 -0.0 0.0
  outer loop
    vertex 0.0 2.0 2.0
    vertex 0.0 0.0 0.0
    vertex 0.0 0.0 2.0
  endloop
endfacet
facet normal -80.0 0.0 -0.0
  outer loop
    vertex 0.0 2.0 2.0
    vertex 0.0 2.0 0.0
    vertex 0.0 0.0 0.0
  endloop
endfacet
facet normal 80.0 -0.0 0.0
  outer loop
    vertex 4.0 0.0 2.0
    vertex 4.0 2.0 0.0
    vertex 4.0 2.0 2.0
  endloop
endfacet
facet normal 80.0 0.0 0.0
  outer loop
    vertex 4.0 0.0 2.0
    vertex 4.0 0.0 0.0
    vertex 4.0 2.0 0.0
  endloop
endfacet
endsolid
